<?xml version="1.0" encoding="UTF-8" standalone="no"?>
<svg xmlns:rdf="http://www.w3.org/1999/02/22-rdf-syntax-ns#" xmlns="http://www.w3.org/2000/svg" height="652.9" width="1221" version="1.1" xmlns:cc="http://creativecommons.org/ns#" xmlns:dc="http://purl.org/dc/elements/1.1/" viewBox="0 0 323.16964 172.73511">
<g transform="translate(29.86 -138.3)">
<path d="m1.89 232.7-1.89 3.1l-29.86 75.22 70.68-1.512 15.88-40.82z" fill-rule="evenodd" fill="#eadaaa"/>
<path d="m261.6 232.7 1.89 3.024 29.86 75.22-70.68-1.512-15.88-40.82z" fill-rule="evenodd" fill="#eadaaa"/>
<g transform="matrix(0 1.756 -1.756 0 514.5 140.2)">
<rect rx="4.233" height="145.5" width="72.76" y="144.9" x="6.501" fill="#5d5f6a"/>
<path fill-rule="evenodd" fill="#fff" d="m28.06 286.7c-5.008-4.019-10.94-3.181-17.37 0.2673l3.742-6.014-0.1336 2.539c6.646-3.841 10.64-0.6894 13.76 3.207z"/>
<rect ry="2.472" height="4.944" width="19.78" y="282" x="33.41" fill="#262626"/>
</g>
<rect transform="rotate(90)" height="226.8" width="115" y="-253.8" x="158" fill="#1e1e1e"/>
<path d="m-12.7 246.5 5.732-37.91 32.23-15.94-16.48 35.98-17.91 63.02z" fill-rule="evenodd" stroke-width="2.414" fill="#eadaaa"/>
<path d="m276.1 246.5-5.732-37.91-32.23-15.94 16.48 35.98 17.91 63.02z" fill-rule="evenodd" stroke-width="2.414" fill="#eadaaa"/>
</g>
</svg>
