<?xml version="1.0" encoding="UTF-8" standalone="no"?>
<svg xmlns:rdf="http://www.w3.org/1999/02/22-rdf-syntax-ns#" xmlns="http://www.w3.org/2000/svg" height="98.36" width="40.58" version="1.1" xmlns:cc="http://creativecommons.org/ns#" xmlns:dc="http://purl.org/dc/elements/1.1/" viewBox="0 0 10.736518 26.024759">
<g transform="translate(11.42 -123)">
<g transform="translate(-57.38 92.85)" fill-rule="evenodd">
<path d="m50.84 54.85 0.735-6.646-2.94-5.34-2.272 0.3007 2.94 4.772z" fill="#32476e"/>
<path d="m46.5 56.15 3.608-7.216-1.487-5.396-2.656 0.2506 1.871 4.878z" fill="#3f5a8b"/>
<path d="m50.79 35.02-0.06072 4.744 3.317 3.964-4.791-2.663-0.1996-5.872z" fill="#0e0f21"/>
<path d="m49.03 43.53 1.813-8.865-2.171-0.357-2.7 9.616z" fill="#171a34"/>
<g transform="matrix(.9026 .4301 -.4301 .9026 153.1 11.43)">
<path fill="#a00" d="m-73.73 72.27c0-1.506-1.513-2.816-3.379-2.816s-3.379 1.364-3.379 2.816c0 1.088 1.513 1.98 3.379 1.98s3.379-0.8738 3.379-1.98z"/>
<path d="m-79.43 69.46v1.452" stroke="#000" stroke-linecap="round" stroke-width=".2646" fill="none"/>
<path d="m-74.9 69.46v1.452" stroke="#000" stroke-linecap="round" stroke-width=".2646" fill="none"/>
<path d="m-80.02 69.28 2.3 1.503c0.3824 0.07247 0.7844 0.1189 1.31 0l2.21-1.542z" fill-rule="evenodd" fill="#b3b3b3"/>
<ellipse rx="3.135" ry="1.143" cy="68.83" cx="-77.13" fill="#ccc"/>
<path d="m-77.12 70.4v1.452" stroke="#000" stroke-linecap="round" stroke-width=".2646" fill="none"/>
<circle cy="73.06" cx="-78.61" r=".4625" fill="#666"/>
</g>
<path d="m49.32 36.52 0.2734 4.744 3.726 3.121-5.2-1.82-0.534-5.872z" fill="#1d2247"/>
<path d="m52.61 35.3-4.206 0.1154 0.3533-5.269 4.21-0.02124z" fill="#beb084"/>
</g>
</g>
</svg>
