<?xml version="1.0" encoding="UTF-8" standalone="no"?>
<svg xmlns:rdf="http://www.w3.org/1999/02/22-rdf-syntax-ns#" xmlns="http://www.w3.org/2000/svg" height="95.03" width="31.78" version="1.1" xmlns:cc="http://creativecommons.org/ns#" xmlns:dc="http://purl.org/dc/elements/1.1/" viewBox="0 0 8.4079269 25.14262">
<g transform="translate(23.1 -59.15)">
<g fill-rule="evenodd" transform="translate(-66.15 -200.7)">
<path fill="#32476e" d="m46.57 283.7-0.735-6.646 2.94-5.34 2.272 0.3007-2.94 4.772z"/>
<path fill="#3f5a8b" d="m50.91 285-3.608-7.216 1.487-5.396 2.656 0.2506-1.871 4.878z"/>
<path d="m45.64 264.9-0.3466 5.554-2.248 3.775 3.462-2.821 0.8676-6.334z" fill="#0e0f21"/>
<path fill="#171a34" d="m48.76 272.4-3.839-8.095 2.061-0.7708 4.471 9.102z"/>
<path d="m44.44 265.6 4.18-0.4786-0.8453-5.253-4.418 0.6595z" fill="#beb084"/>
<path d="m47.14 262.7-1.165 0.037 0.1861 1.905 1.107 0.0708z" stroke-width="1.058" fill="#0f1a1d"/>
<path d="m47.39 266.4-0.7009 1.98-0.3374-4.013-0.6098 5.271 1.038 0.2761 2.309-2.94z" fill="#1d2247"/>
</g>
</g>
</svg>
