<?xml version="1.0" encoding="UTF-8" standalone="no"?>
<svg xmlns:rdf="http://www.w3.org/1999/02/22-rdf-syntax-ns#" xmlns="http://www.w3.org/2000/svg" height="94.51" width="39.11" version="1.1" xmlns:cc="http://creativecommons.org/ns#" xmlns:dc="http://purl.org/dc/elements/1.1/" viewBox="0 0 10.347834 25.00599">
<g transform="translate(45.24 -68.29)">
<g transform="translate(-86.34 -191.7)" fill-rule="evenodd">
<path fill="#32476e" d="m46.57 283.7-0.735-6.646 2.94-5.34 2.272 0.3007-2.94 4.772z"/>
<path d="m50.91 285-3.608-7.216 1.487-5.396 2.656 0.2506-1.871 4.878z" fill="#3f5a8b"/>
<path d="m45.64 264.9-0.6073 5.206-3.471 1.909 4.945-0.6073 0.8676-6.334z" fill="#0e0f21"/>
<path d="m48.76 272.4-3.839-8.095 2.061-0.7708 4.471 9.102z" fill="#171a34"/>
<path d="m42.55 271.1-1.039 0.4961 1.536 1.181 1.063-0.4016z" fill="#0f1a1d"/>
<path d="m47.11 266.4-0.9414 5.206-3.88 1.066 5.354 0.235 1.202-6.334z" fill="#1d2247"/>
<path d="m44.8 266.7 3.226-2.701-3.598-3.92-3.325 2.983z" fill="#beb084"/>
</g>
</g>
</svg>
