<?xml version="1.0" encoding="UTF-8" standalone="no"?>
<svg xmlns:rdf="http://www.w3.org/1999/02/22-rdf-syntax-ns#" xmlns="http://www.w3.org/2000/svg" height="100.3" width="34.94" version="1.1" xmlns:cc="http://creativecommons.org/ns#" xmlns:dc="http://purl.org/dc/elements/1.1/" viewBox="0 0 9.244722 26.547241">
<g fill-rule="evenodd" transform="translate(-42.21 -258.5)">
<path d="m46.57 283.7 0.2268-6.646 1.978-5.34 2.272 0.3007-1.978 4.772z" fill="#32476e"/>
<path d="m50.91 285-2.646-7.216 0.5252-5.396 2.656 0.2251-0.9092 4.904z" fill="#3f5a8b"/>
<path d="m47.15 262.9-1.259 5.088-3.684 1.456 4.982 0.0209 1.659-6.174z" fill="#5f2626"/>
<path d="m48.76 272.4-1.723-8.961 2.061-0.7708 2.355 9.968z" fill="#6d2c2c"/>
<path d="m43.3 268.6-1.093 0.3612 1.375 1.365 1.105-0.2644z" fill="#0f1a1d"/>
<path d="m48.42 264.5-1.59 5.046-3.983 0.5684 5.282 0.908 1.991-6.132z" fill="#803333"/>
<path d="m46.29 265.1 3.595-2.186-2.969-4.416-3.735 2.45z" fill="#beb084"/>
</g>
</svg>
