<?xml version="1.0" encoding="UTF-8" standalone="no"?>
<svg xmlns:rdf="http://www.w3.org/1999/02/22-rdf-syntax-ns#" xmlns="http://www.w3.org/2000/svg" height="102" width="43.64" version="1.1" xmlns:cc="http://creativecommons.org/ns#" xmlns:dc="http://purl.org/dc/elements/1.1/" viewBox="0 0 11.545589 26.99981">
<g transform="translate(127.5 -25.72)">
<g transform="translate(-170.1 -232.3)" fill-rule="evenodd">
<path fill="#32476e" d="m47.3 283.6 1.537-11.83 2.215 0.3007z"/>
<path fill="#3f5a8b" d="m51.92 285-2.374-10.29 0.3271-2.501 1.579 0.365z"/>
<path d="m49.55 264.8-2.871 4.385-3.958 0.1553 4.361 1.468 3.943-5.077z" fill="#5f2626"/>
<path fill="#6d2c2c" d="m48.76 272.2 0.7714-8.831 2.061 0.2315-0.139 9.036z"/>
<path d="m43.74 268.4-1.152-0.0211 0.8452 1.743 1.13 0.1162z" fill="#0f1a1d"/>
<path d="m50.11 266.1 2.079 3.361-1.307 4.244 3.254-4.521-2.767-4.291z" fill="#803333"/>
<path d="m48.66 264.2 4.053-1.131-1.662-5.055-4.259 1.347z" fill="#beb084"/>
</g>
</g>
</svg>
