<?xml version="1.0" encoding="UTF-8" standalone="no"?>
<svg xmlns:rdf="http://www.w3.org/1999/02/22-rdf-syntax-ns#" xmlns="http://www.w3.org/2000/svg" height="97.42" width="35.78" version="1.1" xmlns:cc="http://creativecommons.org/ns#" xmlns:dc="http://purl.org/dc/elements/1.1/" viewBox="0 0 9.4675844 25.774512">
<g fill-rule="evenodd" stroke-width=".9995" transform="translate(68.99 -40.7)">
<path d="m-64.92 66.47 1.236-12.49 1.713 0.3674z" fill="#32476e"/>
<path d="m-60.17 66.2-2.507-9.25 0.02627-2.533 1.578 0.3648z" fill="#3f5a8b"/>
<path d="m-62.31 48.02 2.79 7.713-1.003-7.965z" fill="#803333"/>
<g transform="matrix(.008050 -1 -1 -.008050 208.4 108.7)">
<path d="m58.68 271.3-4.078 1.822 0.3101 4.3 0.8075-3.428 3.108-1.396z" fill="#5f2626"/>
<path d="m55.93 276-1.143-0.021-0.4012 1.732 1.053 0.1155z" fill="#0f1a1d"/>
</g>
<path d="m-63.86 54.88 0.8713-9.295 2.06 0.2314-0.1389 9.032z" fill="#6d2c2c"/>
<path d="m-64.18 46 4.206 0.0108-0.03941-5.314-4.468 0.1412z" fill="#beb084"/>
</g>
</svg>
