<?xml version="1.0" encoding="UTF-8" standalone="no"?>
<svg xmlns:rdf="http://www.w3.org/1999/02/22-rdf-syntax-ns#" xmlns="http://www.w3.org/2000/svg" height="102.2" width="43.12" version="1.1" xmlns:cc="http://creativecommons.org/ns#" xmlns:dc="http://purl.org/dc/elements/1.1/" viewBox="0 0 11.409517 27.032381">
<g transform="translate(-139.4 -115.7)">
<g fill-rule="evenodd" transform="matrix(.9996 0 0 .9996 99.42 -142.2)">
<path fill="#32476e" d="m46.57 283.7 0.2268-6.646 1.978-5.34 2.272 0.3007-1.978 4.772z"/>
<path fill="#3f5a8b" d="m50.91 285-2.646-7.216 0.5252-5.396 2.656 0.2251-0.9092 4.904z"/>
<path d="m48.84 263.5-3.92 2.8-4.003-0.8748 4.206 2.671 4.728-3.579z" fill="#5f2626"/>
<path d="m48.48 272.4-0.7543-9.195 2.114-0.612 1.591 10.12z" fill="#6d2c2c"/>
<g transform="matrix(.8696 -.4947 .4947 .8696 80.5 121.2)">
<path fill-rule="evenodd" fill="#75b3b3" d="m-105.9 111.5h3.289v-4.882l-1.089-2.076h-2.302z"/>
<rect height=".4882" width="1.053" y="104.9" x="-105.8" fill="#204040"/>
<g transform="translate(-169.2,76.32)">
<path d="m239 116 0.1914 12.91h12.49v-12.91h-12.68z" fill="#428585" transform="scale(.2646)"/>
<g fill="#204040">
<ellipse cy="31.79" cx="64.36" rx="1.008" ry=".4542"/>
<path d="m239.2 125.4 0.0137 0.8926h12.53v-0.8926h-12.54z" transform="scale(.2646)"/>
</g>
</g>
</g>
<path d="m49.71 264.4-4.377 2.915-3.501-1.983 3.628 3.945 5.322-3.639z" fill="#803333"/>
<path d="m46.63 263.2 4.207-0.0443-0.5165-5.204-4.244 0.0907z" fill="#beb084"/>
</g>
</g>
</svg>
