<?xml version="1.0" encoding="UTF-8" standalone="no"?>
<svg xmlns:rdf="http://www.w3.org/1999/02/22-rdf-syntax-ns#" xmlns="http://www.w3.org/2000/svg" height="116.3" width="49.66" version="1.1" xmlns:cc="http://creativecommons.org/ns#" xmlns:dc="http://purl.org/dc/elements/1.1/" viewBox="0 0 13.139877 30.784071">
<g fill-rule="evenodd" transform="translate(75.36 -88.84)">
<g stroke-width=".9996">
<path d="m-68 118.3 0.2267-6.644 1.977-5.338 2.271 0.3006-1.977 4.77z" fill="#32476e"/>
<path d="m-63.66 119.6-2.645-7.213 0.525-5.394 2.655 0.225-0.9089 4.902z" fill="#3f5a8b"/>
<path d="m-65.73 98.09-3.919 2.799-2.67 0.745-0.2484 0.3728 3.121 0.6774 4.727-3.578z" fill="#5f2626"/>
</g>
<g transform="matrix(-.8422 -.5389 .5389 -.8422 -146.3 217.4)">
<rect rx=".7937" height="5.814" width="7.849" y="144.7" x="-3.924" fill="#c6e3e3"/>
<rect rx=".5292" height="5.814" width="7.849" y="143.9" x="-3.924" fill="#2f5e5b"/>
<rect ry=".5450" height="13.66" width="1.09" y="132" x="-.6541" fill="#2f5e5b"/>
</g>
<g stroke-width=".9996">
<path d="m-66.09 107.1-0.754-9.191 2.113-0.6117 1.59 10.11z" fill="#6d2c2c"/>
<path d="m-64.86 99.07-3.431 2.478-2.037-4.191-0.2133 0.5013 1.432 6.087 5.32-3.638z" fill="#803333"/>
<path d="m-67.94 97.84 4.206-0.04428-0.5163-5.202-4.243 0.09067z" fill="#beb084"/>
</g>
<path d="m-72.77 101.5-0.2826 0.4111 0.925-0.1542z" fill="#803333"/>
</g>
</svg>
