<?xml version="1.0" encoding="UTF-8" standalone="no"?>
<svg xmlns:rdf="http://www.w3.org/1999/02/22-rdf-syntax-ns#" xmlns="http://www.w3.org/2000/svg" height="225" width="490" version="1.1" xmlns:cc="http://creativecommons.org/ns#" xmlns:xlink="http://www.w3.org/1999/xlink" viewBox="0 0 129.64583 59.53125" xmlns:dc="http://purl.org/dc/elements/1.1/">
<g transform="translate(0 -237.5)">
<rect height="59.53" width="129.6" y="237.5" x="2.22e-16" fill="#4b4b4b"/>
<rect height="21.92" width="129.6" y="275.1" x="2.22e-16" fill="#787878"/>
<g transform="translate(0 3.402)">
<rect height="36.29" width="21.54" y="248.4" x="51.78" fill="#1c1c1c"/>
<rect ry="2.74" height="13.61" width="5.481" y="240.3" x="59.91" fill="#1c1c1c"/>
<rect id="a" ry="1.799" height="20.94" width="2.843" y="261.9" x="53.85" fill="#cd7f00"/>
<use xlink:href="#a" transform="translate(4.914)" height="100%" width="100%" y="0" x="0"/>
<use xlink:href="#a" transform="translate(9.827)" height="100%" width="100%" y="0" x="0"/>
<use xlink:href="#a" transform="translate(14.55)" height="100%" width="100%" y="0" x="0"/>
</g>
<g transform="translate(5.746)">
<g stroke="#745d35">
<rect height="19.47" width="18.33" stroke-linecap="square" y="266.8" x="76.54" stroke-width="1.058" fill="#967846"/>
<path d="m94.63 277.8-17.99 8.022m0-8.022 17.99 8.022" stroke-width=".9340" fill="none"/>
</g>
<g stroke="#8d7140" stroke-width="1.058">
<rect height="10.96" width="18.33" stroke-linecap="square" y="266.4" x="76.54" fill="#b18f57"/>
<path d="m94.59 266.7-17.91 10.35m0-10.35 17.91 10.35" fill="none"/>
</g>
</g>
</g>
</svg>
