<?xml version="1.0" encoding="UTF-8" standalone="no"?>
<svg xmlns:rdf="http://www.w3.org/1999/02/22-rdf-syntax-ns#" xmlns="http://www.w3.org/2000/svg" height="225" width="490" version="1.1" xmlns:cc="http://creativecommons.org/ns#" xmlns:xlink="http://www.w3.org/1999/xlink" viewBox="0 0 129.64583 59.53125" xmlns:dc="http://purl.org/dc/elements/1.1/">
<g transform="translate(0 -237.5)">
<rect height="64.07" width="145.9" y="236.3" x="-9.353" fill="#e3cb83"/>
<rect height="24.86" width="136.5" y="275.1" x="-4.276" fill="#236a38"/>
<g transform="matrix(.8035 0 0 .8035 14.83 55.61)">
<g>
<rect height="24.57" width="33.64" y="257.9" x="90.53" fill="#499c61"/>
<rect height="6.237" width="33.64" y="268.7" x="90.53" fill="#3d8251"/>
</g>
<g id="a">
<rect height="10.02" width="6.142" y="265.7" x="84.39" fill="#38784b"/>
<rect height="9.922" width="6.142" y="273.1" x="84.39" fill="#43905a"/>
</g>
<use xlink:href="#a" transform="translate(39.77)" height="100%" width="100%" y="0" x="0"/>
</g>
<g transform="matrix(0.6 0 0 0.6 12.02 117.4)">
<ellipse rx="11.2" ry="5.481" cy="288.3" cx="26.41" fill="#998758"/>
<g fill="#756743">
<rect height="14.74" width="2.079" y="273.7" x="15.31"/>
<rect height="14.74" width="2.079" y="273.7" x="35.53"/>
<rect transform="matrix(.9839 .1789 0 1 0 0)" height="14.74" width="2.113" y="264.2" x="28.72"/>
<rect transform="matrix(.9839 .1789 0 1 0 0)" height="14.74" width="2.113" y="274.7" x="22.86"/>
</g>
</g>
</g>
</svg>
