<?xml version="1.0" encoding="UTF-8" standalone="no"?>
<svg xmlns:rdf="http://www.w3.org/1999/02/22-rdf-syntax-ns#" xmlns="http://www.w3.org/2000/svg" height="225" width="490" version="1.1" xmlns:cc="http://creativecommons.org/ns#" xmlns:xlink="http://www.w3.org/1999/xlink" viewBox="0 0 129.64583 59.53125" xmlns:dc="http://purl.org/dc/elements/1.1/">
<g transform="translate(0 -237.5)">
<rect height="59.53" width="129.6" y="237.5" x="2.22e-16" fill="#4b4b4b"/>
<rect height="21.92" width="129.6" y="275.1" x="2.22e-16" fill="#787878"/>
<g id="a" transform="translate(-69.66)">
<rect height="19.47" width="18.33" stroke="#745d35" stroke-linecap="square" y="266.8" x="76.54" stroke-width="1.058" fill="#967846"/>
<path d="m94.63 277.8-17.99 8.022m0-8.022 17.99 8.022" stroke="#745d35" stroke-width=".9340" fill="none"/>
<rect height="10.96" width="18.33" stroke="#8d7140" stroke-linecap="square" y="266.4" x="76.54" stroke-width="1.058" fill="#b18f57"/>
<path d="m94.59 266.7-17.91 10.35m0-10.35 17.91 10.35" stroke="#8d7140" stroke-width="1.058" fill="none"/>
</g>
<use xlink:href="#a" transform="translate(21.54)" height="100%" width="100%" y="0" x="0"/>
<use xlink:href="#a" transform="translate(7.246 -9.755)" height="100%" width="100%" y="0" x="0"/>
<use xlink:href="#a" transform="translate(44.53 -.1336)" height="100%" width="100%" y="0" x="0"/>
<use xlink:href="#a" transform="translate(34.51 -9.755)" height="100%" width="100%" y="0" x="0"/>
<use xlink:href="#a" transform="translate(93.97 -.2673)" height="100%" width="100%" y="0" x="0"/>
<use xlink:href="#a" transform="translate(115.2 -.4009)" height="100%" width="100%" y="0" x="0"/>
<use xlink:href="#a" transform="translate(105.2 -10.16)" height="100%" width="100%" y="0" x="0"/>
<use xlink:href="#a" transform="translate(13.39 11.89)" height="100%" width="100%" y="0" x="0"/>
<use xlink:href="#a" transform="translate(38.25 11.89)" height="100%" width="100%" y="0" x="0"/>
</g>
</svg>
